<svg width="150" height="50" viewBox="0 0 150 50" fill="none" xmlns="http://www.w3.org/2000/svg">
<rect width="150" height="50" fill="#1A1D29"/>
<g clip-path="url(#clip0_0_1)">
<path d="M9.37 29.51C6.46867 29.51 4.21333 28.7393 2.604 27.198C1.01733 25.6567 0.224 23.4807 0.224 20.67C0.224 18.766 0.598 17.0887 1.346 15.638C2.094 14.1647 3.148 13.0313 4.508 12.238C5.868 11.422 7.44333 11.014 9.234 11.014C10.0727 11.014 10.9453 11.116 11.852 11.32C12.7813 11.5013 13.4953 11.7167 13.994 11.966L13.076 16.012C12.5547 15.7627 11.9767 15.57 11.342 15.434C10.73 15.2753 10.152 15.196 9.608 15.196C8.20267 15.196 7.06933 15.672 6.208 16.624C5.36933 17.576 4.95 18.834 4.95 20.398C4.95 21.9847 5.38067 23.2087 6.242 24.07C7.126 24.9313 8.37267 25.362 9.982 25.362C11.0473 25.362 12.192 25.158 13.416 24.75L14.13 28.626C12.6567 29.2153 11.07 29.51 9.37 29.51ZM17.6479 11.49H22.4419V14.346H22.7139C23.3713 13.19 24.0173 12.34 24.6519 11.796C25.3093 11.252 26.1253 10.98 27.0999 10.98C27.5079 10.98 27.8479 11.0253 28.1199 11.116L27.6099 16.284C27.0206 16.1253 26.5446 16.046 26.1819 16.046C25.6606 16.046 25.1959 16.148 24.7879 16.352C24.4026 16.556 24.0513 16.828 23.7339 17.168C23.4393 17.508 23.0086 18.0293 22.4419 18.732V29H17.6479V11.49ZM34.2721 36.616C33.2294 36.616 32.1414 36.3667 31.0081 35.868L31.7221 31.924C32.5834 32.3547 33.3087 32.57 33.8981 32.57C34.6007 32.57 35.1221 32.3433 35.4621 31.89C35.8247 31.4367 36.2101 30.6433 36.6181 29.51L29.7841 11.558L34.7481 11.15L38.9301 23.696L42.8061 11.49H47.5321C46.0814 15.8873 44.5514 20.2167 42.9421 24.478C41.3554 28.7393 40.1201 31.6633 39.2361 33.25C38.6014 34.3833 37.8874 35.222 37.0941 35.766C36.3234 36.3327 35.3827 36.616 34.2721 36.616ZM50.2178 11.49H54.8758L54.7738 13.768H54.9098C55.4991 12.8613 56.2131 12.17 57.0518 11.694C57.9131 11.218 58.8878 10.98 59.9758 10.98C61.9478 10.98 63.4891 11.7393 64.5998 13.258C65.7331 14.754 66.2998 16.8507 66.2998 19.548C66.2998 22.744 65.4611 25.2033 63.7838 26.926C62.1291 28.626 59.7605 29.476 56.6778 29.476C56.2925 29.476 55.7145 29.4533 54.9438 29.408V36.412H50.2178V11.49ZM57.1538 25.294C58.5818 25.294 59.6585 24.8293 60.3838 23.9C61.1318 22.9707 61.5058 21.6107 61.5058 19.82C61.5058 18.3693 61.2678 17.236 60.7918 16.42C60.3385 15.5813 59.7038 15.162 58.8878 15.162C58.1625 15.162 57.4598 15.4793 56.7798 16.114C56.0998 16.726 55.4878 17.61 54.9438 18.766V24.988C55.7145 25.192 56.4511 25.294 57.1538 25.294ZM76.2669 29.51C74.6349 29.51 73.3655 29.102 72.4589 28.286C71.5749 27.4473 71.1329 26.2687 71.1329 24.75V15.604H68.4129V11.49H71.1329V7.75C72.7422 7.478 74.3289 7.274 75.8929 7.138V11.49H80.3129V15.604H75.8929V23.866C75.8929 24.342 76.0289 24.7047 76.3009 24.954C76.5955 25.2033 77.0035 25.328 77.5249 25.328C78.1595 25.328 78.8849 25.1807 79.7009 24.886L80.7549 28.49C79.3042 29.17 77.8082 29.51 76.2669 29.51ZM91.4133 29.51C89.6453 29.51 88.0813 29.1247 86.7213 28.354C85.384 27.5833 84.3413 26.5067 83.5933 25.124C82.8453 23.7187 82.4713 22.098 82.4713 20.262C82.4713 18.426 82.834 16.8167 83.5593 15.434C84.3073 14.0287 85.35 12.9407 86.6873 12.17C88.0473 11.3993 89.6113 11.014 91.3793 11.014C93.1473 11.014 94.7 11.3993 96.0373 12.17C97.3973 12.918 98.44 13.9833 99.1653 15.366C99.9133 16.7487 100.287 18.3467 100.287 20.16C100.287 21.996 99.9133 23.628 99.1653 25.056C98.44 26.4613 97.3973 27.5607 96.0373 28.354C94.7 29.1247 93.1587 29.51 91.4133 29.51ZM91.3793 25.362C92.6033 25.362 93.578 24.8973 94.3033 23.968C95.0513 23.016 95.4253 21.7693 95.4253 20.228C95.4253 18.6867 95.0513 17.4627 94.3033 16.556C93.578 15.6267 92.6033 15.162 91.3793 15.162C90.1553 15.162 89.1693 15.6267 88.4213 16.556C87.696 17.4627 87.3333 18.6867 87.3333 20.228C87.3333 21.7693 87.696 23.016 88.4213 23.968C89.1693 24.8973 90.1553 25.362 91.3793 25.362Z" fill="white"/>
<path d="M118.21 11.49H122.902V14.21C124.285 12.0793 126.155 11.014 128.512 11.014C129.849 11.014 130.983 11.3313 131.912 11.966C132.864 12.578 133.555 13.462 133.986 14.618C134.779 13.3713 135.663 12.4647 136.638 11.898C137.635 11.3087 138.769 11.014 140.038 11.014C141.919 11.014 143.381 11.5807 144.424 12.714C145.489 13.8247 146.022 15.3773 146.022 17.372V29H141.228V18.12C141.228 17.2133 141.001 16.5107 140.548 16.012C140.117 15.4907 139.528 15.23 138.78 15.23C137.851 15.23 136.989 15.6153 136.196 16.386C135.403 17.1567 134.813 18.1427 134.428 19.344V29H129.634V18.12C129.634 17.236 129.407 16.5333 128.954 16.012C128.501 15.4907 127.9 15.23 127.152 15.23C126.313 15.23 125.52 15.5473 124.772 16.182C124.047 16.794 123.457 17.6667 123.004 18.8V29H118.21V11.49Z" fill="white"/>
<rect x="108" y="2" width="3" height="36" fill="#D95776"/>
<path d="M1.77 40.674H6.225V42.06H3.343V43.523H5.73V44.865H3.343V46.614H6.225V48H1.77V40.674ZM9.51959 48.165C8.99159 48.165 8.58092 48.033 8.28759 47.769C8.00159 47.4977 7.85859 47.1163 7.85859 46.625V43.666H6.97859V42.335H7.85859V41.125C8.37925 41.037 8.89259 40.971 9.39859 40.927V42.335H10.8286V43.666H9.39859V46.339C9.39859 46.493 9.44259 46.6103 9.53059 46.691C9.62592 46.7717 9.75792 46.812 9.92659 46.812C10.1319 46.812 10.3666 46.7643 10.6306 46.669L10.9716 47.835C10.5023 48.055 10.0183 48.165 9.51959 48.165ZM12.0705 39.97H13.6215V43.16C13.8488 42.8227 14.1091 42.577 14.4025 42.423C14.6958 42.2617 15.0331 42.181 15.4145 42.181C16.0231 42.181 16.4998 42.3643 16.8445 42.731C17.1891 43.0903 17.3615 43.5927 17.3615 44.238V48H15.8105V44.48C15.8105 44.1867 15.7371 43.9593 15.5905 43.798C15.4438 43.6293 15.2458 43.545 14.9965 43.545C14.7251 43.545 14.4648 43.6403 14.2155 43.831C13.9735 44.0143 13.7755 44.26 13.6215 44.568V48H12.0705V39.97ZM21.4681 48.165C20.5514 48.165 19.8291 47.901 19.3011 47.373C18.7804 46.845 18.5201 46.1117 18.5201 45.173C18.5201 44.5643 18.6337 44.0363 18.8611 43.589C19.0884 43.1343 19.4074 42.786 19.8181 42.544C20.2361 42.302 20.7237 42.181 21.2811 42.181C22.1024 42.181 22.7331 42.445 23.1731 42.973C23.6131 43.501 23.8331 44.2637 23.8331 45.261C23.8331 45.4297 23.8294 45.5543 23.8221 45.635H20.0821C20.1554 46.0237 20.3241 46.3207 20.5881 46.526C20.8521 46.724 21.2077 46.823 21.6551 46.823C21.9264 46.823 22.2087 46.79 22.5021 46.724C22.7954 46.6507 23.0521 46.5553 23.2721 46.438L23.5251 47.681C23.2317 47.835 22.9054 47.9523 22.5461 48.033C22.1941 48.121 21.8347 48.165 21.4681 48.165ZM22.3481 44.469C22.3261 44.1537 22.2161 43.9043 22.0181 43.721C21.8201 43.5303 21.5561 43.435 21.2261 43.435C20.9107 43.435 20.6504 43.5267 20.4451 43.71C20.2471 43.8933 20.1224 44.1463 20.0711 44.469H22.3481ZM25.0263 42.335H26.5773V43.259H26.6653C26.878 42.885 27.087 42.61 27.2923 42.434C27.505 42.258 27.769 42.17 28.0843 42.17C28.2163 42.17 28.3263 42.1847 28.4143 42.214L28.2493 43.886C28.0587 43.8347 27.9047 43.809 27.7873 43.809C27.6187 43.809 27.4683 43.842 27.3363 43.908C27.2117 43.974 27.098 44.062 26.9953 44.172C26.9 44.282 26.7607 44.4507 26.5773 44.678V48H25.0263V42.335ZM31.8665 48.165C30.9498 48.165 30.2275 47.901 29.6995 47.373C29.1788 46.845 28.9185 46.1117 28.9185 45.173C28.9185 44.5643 29.0322 44.0363 29.2595 43.589C29.4868 43.1343 29.8058 42.786 30.2165 42.544C30.6345 42.302 31.1222 42.181 31.6795 42.181C32.5008 42.181 33.1315 42.445 33.5715 42.973C34.0115 43.501 34.2315 44.2637 34.2315 45.261C34.2315 45.4297 34.2278 45.5543 34.2205 45.635H30.4805C30.5538 46.0237 30.7225 46.3207 30.9865 46.526C31.2505 46.724 31.6062 46.823 32.0535 46.823C32.3248 46.823 32.6072 46.79 32.9005 46.724C33.1938 46.6507 33.4505 46.5553 33.6705 46.438L33.9235 47.681C33.6302 47.835 33.3038 47.9523 32.9445 48.033C32.5925 48.121 32.2332 48.165 31.8665 48.165ZM32.7465 44.469C32.7245 44.1537 32.6145 43.9043 32.4165 43.721C32.2185 43.5303 31.9545 43.435 31.6245 43.435C31.3092 43.435 31.0488 43.5267 30.8435 43.71C30.6455 43.8933 30.5208 44.1463 30.4695 44.469H32.7465ZM37.3265 48.154C36.7251 48.154 36.2521 47.9707 35.9075 47.604C35.5628 47.2373 35.3905 46.735 35.3905 46.097V42.335H36.9415V45.844C36.9415 46.1447 37.0148 46.3793 37.1615 46.548C37.3081 46.7093 37.5061 46.79 37.7555 46.79C38.0048 46.79 38.2431 46.7093 38.4705 46.548C38.7051 46.3867 38.8995 46.1703 39.0535 45.899V42.335H40.6045V48H39.0535V47.252C38.8408 47.538 38.5951 47.7617 38.3165 47.923C38.0451 48.077 37.7151 48.154 37.3265 48.154ZM42.0304 42.335H43.5484V43.215C43.9958 42.5257 44.6008 42.181 45.3634 42.181C45.7961 42.181 46.1628 42.2837 46.4634 42.489C46.7714 42.687 46.9951 42.973 47.1344 43.347C47.3911 42.9437 47.6771 42.6503 47.9924 42.467C48.3151 42.2763 48.6818 42.181 49.0924 42.181C49.7011 42.181 50.1741 42.3643 50.5114 42.731C50.8561 43.0903 51.0284 43.5927 51.0284 44.238V48H49.4774V44.48C49.4774 44.1867 49.4041 43.9593 49.2574 43.798C49.1181 43.6293 48.9274 43.545 48.6854 43.545C48.3848 43.545 48.1061 43.6697 47.8494 43.919C47.5928 44.1683 47.4021 44.4873 47.2774 44.876V48H45.7264V44.48C45.7264 44.194 45.6531 43.9667 45.5064 43.798C45.3598 43.6293 45.1654 43.545 44.9234 43.545C44.6521 43.545 44.3954 43.6477 44.1534 43.853C43.9188 44.051 43.7281 44.3333 43.5814 44.7V48H42.0304V42.335ZM53.9452 40.674H55.6392L56.9152 45.943L58.2242 40.718L60.2812 40.564L61.6672 46.097L62.9542 40.674H64.5272L62.5472 48H60.6222L59.2032 42.203L57.7292 48H55.8262L53.9452 40.674ZM66.7759 48.165C66.1892 48.165 65.7235 47.9157 65.3789 47.417C65.0342 46.9183 64.8619 46.24 64.8619 45.382C64.8619 44.3407 65.1259 43.5487 65.6539 43.006C66.1819 42.456 66.9409 42.181 67.9309 42.181C68.4882 42.181 69.1409 42.269 69.8889 42.445V48H68.4149L68.4479 47.098H68.4039C68.2132 47.4427 67.9785 47.7067 67.6999 47.89C67.4285 48.0733 67.1205 48.165 66.7759 48.165ZM67.1059 46.812C67.3332 46.812 67.5569 46.691 67.7769 46.449C67.9969 46.207 68.2022 45.8843 68.3929 45.481V43.633C68.1582 43.567 67.9235 43.534 67.6889 43.534C67.2489 43.534 66.9152 43.6843 66.6879 43.985C66.4679 44.2857 66.3579 44.7293 66.3579 45.316C66.3579 45.778 66.4239 46.1447 66.5559 46.416C66.6879 46.68 66.8712 46.812 67.1059 46.812ZM70.9532 46.669H71.9542V41.29H71.0082V39.97H73.5052V46.669H74.5062V48H70.9532V46.669ZM75.1641 46.669H76.1651V41.29H75.2191V39.97H77.7161V46.669H78.7171V48H75.1641V46.669ZM82.2796 48.165C81.3629 48.165 80.6406 47.901 80.1126 47.373C79.5919 46.845 79.3316 46.1117 79.3316 45.173C79.3316 44.5643 79.4453 44.0363 79.6726 43.589C79.8999 43.1343 80.2189 42.786 80.6296 42.544C81.0476 42.302 81.5353 42.181 82.0926 42.181C82.9139 42.181 83.5446 42.445 83.9846 42.973C84.4246 43.501 84.6446 44.2637 84.6446 45.261C84.6446 45.4297 84.6409 45.5543 84.6336 45.635H80.8936C80.9669 46.0237 81.1356 46.3207 81.3996 46.526C81.6636 46.724 82.0193 46.823 82.4666 46.823C82.7379 46.823 83.0203 46.79 83.3136 46.724C83.6069 46.6507 83.8636 46.5553 84.0836 46.438L84.3366 47.681C84.0433 47.835 83.7169 47.9523 83.3576 48.033C83.0056 48.121 82.6463 48.165 82.2796 48.165ZM83.1596 44.469C83.1376 44.1537 83.0276 43.9043 82.8296 43.721C82.6316 43.5303 82.3676 43.435 82.0376 43.435C81.7223 43.435 81.4619 43.5267 81.2566 43.71C81.0586 43.8933 80.9339 44.1463 80.8826 44.469H83.1596ZM87.8838 48.165C87.3558 48.165 86.9452 48.033 86.6518 47.769C86.3658 47.4977 86.2228 47.1163 86.2228 46.625V43.666H85.3428V42.335H86.2228V41.125C86.7435 41.037 87.2568 40.971 87.7628 40.927V42.335H89.1928V43.666H87.7628V46.339C87.7628 46.493 87.8068 46.6103 87.8948 46.691C87.9902 46.7717 88.1222 46.812 88.2908 46.812C88.4962 46.812 88.7308 46.7643 88.9948 46.669L89.3358 47.835C88.8665 48.055 88.3825 48.165 87.8838 48.165Z" fill="#42475A"/>
</g>
<defs>
<clipPath id="clip0_0_1">
<rect width="150" height="50" fill="white"/>
</clipPath>
</defs>
</svg>
